<?xml version="1.0" standalone="no"?>
<!DOCTYPE svg PUBLIC "-//W3C//DTD SVG 20010904//EN" "http://www.w3.org/TR/2001/REC-SVG-20010904/DTD/svg10.dtd">
<svg xmlns="http://www.w3.org/2000/svg" version="1.0" width="97" height="97" viewBox="0 0 97.000000 97.000000" preserveAspectRatio="xMidYMid meet">
<metadata>
Created by potrace 1.15, written by Peter Selinger 2001-2017
</metadata>
<g transform="translate(0.000000,97.000000) scale(0.100000,-0.100000)" fill="#000000" stroke="none">
<path d="M581 758 c-167 -429 -221 -574 -216 -586 3 -7 15 -12 26 -10 18 3 39 48 136 297 62 162 111 301 109 308 -9 21 -46 15 -55 -9z"/>
<path d="M223 583 c-72 -56 -123 -103 -123 -113 0 -10 45 -53 107 -101 150 -118 141 -113 158 -99 8 7 15 18 15 25 0 6 -45 47 -100 90 -55 42 -100 81 -100 85 0 4 45 43 100 85 55 43 100 84 100 90 0 11 -20 35 -29 35 -4 0 -61 -44 -128 -97z"/>
<path d="M630 665 c-16 -20 -10 -27 101 -116 49 -39 89 -74 89 -79 0 -5 -40 -40 -89 -79 -111 -89 -117 -96 -101 -116 7 -9 19 -14 26 -11 7 3 65 46 128 96 72 57 116 99 116 110 0 11 -44 53 -116 110 -63 50 -121 93 -128 96 -7 3 -19 -2 -26 -11z"/>
</g>
</svg>